<svg width="32" height="32" viewBox="0 0 32 32" fill="none" xmlns="http://www.w3.org/2000/svg">
<circle cx="16" cy="16" r="5" fill="#0072B0"/>
<path d="M1 17H8.81513C9.31933 19.0359 11.5378 23.1077 16.3782 23.1077C21.2185 23.1077 23.1008 19.0359 23.437 17H31C30.7479 21.1567 27.5346 30.7937 16.3782 30.9969C5.41441 31.1966 1.57059 21.6485 1 17Z" fill="#0072B0" stroke="#0072B0"/>
<path d="M1 15H8.81513C9.31933 12.9641 11.5378 8.89225 16.3782 8.89225C21.2185 8.89225 23.1008 12.9641 23.437 15H31C30.7479 10.8433 27.5346 1.20626 16.3782 1.00308C5.41441 0.80342 1.57059 10.3515 1 15Z" fill="#0072B0" stroke="#0072B0"/>
</svg>
